<svg width="320" height="320" viewBox="0 0 320 320" fill="none" xmlns="http://www.w3.org/2000/svg">
<style>
  @keyframes chatgptRotate {
    0% { transform: rotate(0deg); }
    25% { transform: rotate(360deg); }
    100% { transform: rotate(360deg); }
  }
  .chatgpt-logo {
    transform-origin: center;
    animation: chatgptRotate 4s ease-in-out infinite;
  }
</style>
<g clip-path="url(#clip0_1892_2104)" class="chatgpt-logo">
<path d="M297.059 130.97C304.319 109.18 301.819 85.3095 290.209 65.4895C272.749 35.0895 237.649 19.4495 203.369 26.8095C188.119 9.62953 166.209 -0.140469 143.239 -0.000468893C108.199 -0.0804689 77.1091 22.4795 66.3291 55.8195C43.8191 60.4295 24.3891 74.5195 13.0191 94.4895C-4.57089 124.81 -0.560892 163.03 22.9391 189.03C15.6791 210.82 18.1791 234.69 29.7891 254.51C47.2491 284.91 82.3491 300.55 116.629 293.19C131.869 310.37 153.789 320.14 176.759 319.99C211.819 320.08 242.919 297.5 253.699 264.13C276.209 259.52 295.639 245.43 307.009 225.46C324.579 195.14 320.559 156.95 297.069 130.95L297.059 130.97ZM176.779 299.08C162.749 299.1 149.159 294.19 138.389 285.2C138.879 284.94 139.729 284.47 140.279 284.13L203.999 247.33C207.259 245.48 209.259 242.01 209.239 238.26V148.43L236.169 163.98C236.459 164.12 236.649 164.4 236.689 164.72V239.11C236.649 272.19 209.859 299.01 176.779 299.08ZM47.9391 244.05C40.9091 231.91 38.3791 217.68 40.7891 203.87C41.2591 204.15 42.0891 204.66 42.6791 205L106.399 241.8C109.629 243.69 113.629 243.69 116.869 241.8L194.659 196.88V227.98C194.679 228.3 194.529 228.61 194.279 228.81L129.869 266C101.179 282.52 64.5391 272.7 47.9491 244.05H47.9391ZM31.1691 104.96C38.1691 92.7995 49.2191 83.4995 62.3791 78.6695C62.3791 79.2195 62.3491 80.1895 62.3491 80.8695V154.48C62.3291 158.22 64.3291 161.69 67.5791 163.54L145.369 208.45L118.439 224C118.169 224.18 117.829 224.21 117.529 224.08L53.1091 186.86C24.4791 170.28 14.6591 133.65 31.1591 104.97L31.1691 104.96ZM252.429 156.45L174.639 111.53L201.569 95.9895C201.839 95.8095 202.179 95.7795 202.479 95.9095L266.899 133.1C295.579 149.67 305.409 186.36 288.839 215.04C281.829 227.18 270.789 236.48 257.639 241.32V165.51C257.669 161.77 255.679 158.31 252.439 156.45H252.429ZM279.229 116.11C278.759 115.82 277.929 115.32 277.339 114.98L213.619 78.1795C210.389 76.2895 206.389 76.2895 203.149 78.1795L125.359 123.1V91.9995C125.339 91.6795 125.489 91.3695 125.739 91.1695L190.149 54.0095C218.839 37.4595 255.519 47.3095 272.059 76.0095C279.049 88.1295 281.579 102.32 279.209 116.11H279.229ZM110.719 171.54L83.7791 155.99C83.4891 155.85 83.2991 155.57 83.2591 155.25V80.8595C83.2791 47.7395 110.149 20.8995 143.269 20.9195C157.279 20.9195 170.839 25.8395 181.609 34.7995C181.119 35.0595 180.279 35.5295 179.719 35.8695L115.999 72.6695C112.739 74.5195 110.739 77.9795 110.759 81.7295L110.719 171.52V171.54ZM125.349 140L159.999 119.99L194.649 139.99V180L159.999 200L125.349 180V140Z" fill="black"/>
</g>
<defs>
<clipPath id="clip0_1892_2104">
<rect width="320" height="320" fill="white"/>
</clipPath>
</defs>
</svg>
