<svg width="29" height="30" viewBox="0 0 29 30" fill="none" xmlns="http://www.w3.org/2000/svg">
<path d="M28.9585 15.1122C28.9585 14.0645 28.8645 13.057 28.6899 12.0898H14.7734V17.8122H22.7257C22.3764 19.6525 21.3287 21.2107 19.757 22.2585V25.9794H24.5525C27.3466 23.4003 28.9585 19.6122 28.9585 15.1122Z" fill="#4285F4"/>
<path d="M14.7731 29.5519C18.7626 29.5519 22.1074 28.2355 24.5522 25.9788L19.7567 22.2579C18.4402 23.1444 16.7611 23.6818 14.7731 23.6818C10.9313 23.6818 7.66711 21.0892 6.49845 17.5967H1.58203V21.4116C4.01337 26.234 8.99696 29.5519 14.7731 29.5519Z" fill="#34A853"/>
<path d="M6.50149 17.5841C6.20597 16.6976 6.03134 15.7573 6.03134 14.7767C6.03134 13.7961 6.20597 12.8558 6.50149 11.9692V8.1543H1.58507C0.577612 10.1424 0 12.3856 0 14.7767C0 17.1677 0.577612 19.411 1.58507 21.3991L5.41343 18.417L6.50149 17.5841Z" fill="#FBBC05"/>
<path d="M14.7731 5.88358C16.9492 5.88358 18.8835 6.63582 20.4283 8.08657L24.6596 3.85522C22.094 1.46418 18.7626 0 14.7731 0C8.99696 0 4.01337 3.31791 1.58203 8.15373L6.49845 11.9687C7.66711 8.47612 10.9313 5.88358 14.7731 5.88358Z" fill="#EA4335"/>
</svg>
