<svg width="30" height="30" viewBox="0 0 30 30" fill="none" xmlns="http://www.w3.org/2000/svg">
<path d="M10.6289 11.25C11.6644 11.25 12.5039 12.0895 12.5039 13.125V16.875C12.5039 17.9105 11.6644 18.75 10.6289 18.75C9.59337 18.75 8.75391 17.9105 8.75391 16.875V13.125C8.75391 12.0895 9.59337 11.25 10.6289 11.25Z" fill="url(#paint0_linear_2014_273)"/>
<path d="M19.3711 11.25C20.4066 11.25 21.2461 12.0895 21.2461 13.125V16.875C21.2461 17.9105 20.4066 18.75 19.3711 18.75C18.3356 18.75 17.4961 17.9105 17.4961 16.875V13.125C17.4961 12.0895 18.3356 11.25 19.3711 11.25Z" fill="url(#paint1_linear_2014_273)"/>
<path fill-rule="evenodd" clip-rule="evenodd" d="M19.9995 0C25.5224 0 30 4.47764 30 10.0005V19.9995C30 25.5224 25.5224 30 19.9995 30H10.0005L9.48486 29.9868C4.20142 29.7187 0 25.3496 0 19.9995V10.0005C0 4.65041 4.20142 0.281288 9.48486 0.0131836L10.0005 0H19.9995ZM10.0005 3.75C6.54871 3.75 3.75 6.54871 3.75 10.0005V19.9995C3.75 23.4513 6.54871 26.25 10.0005 26.25H19.9995C23.4513 26.25 26.25 23.4513 26.25 19.9995V10.0005C26.25 6.54871 23.4513 3.75 19.9995 3.75H10.0005Z" fill="url(#paint2_linear_2014_273)"/>
<defs>
<linearGradient id="paint0_linear_2014_273" x1="0" y1="15" x2="30" y2="15" gradientUnits="userSpaceOnUse">
<stop stop-color="#6054FF"/>
<stop offset="1" stop-color="#8641FF"/>
</linearGradient>
<linearGradient id="paint1_linear_2014_273" x1="0" y1="15" x2="30" y2="15" gradientUnits="userSpaceOnUse">
<stop stop-color="#6054FF"/>
<stop offset="1" stop-color="#8641FF"/>
</linearGradient>
<linearGradient id="paint2_linear_2014_273" x1="0" y1="15" x2="30" y2="15" gradientUnits="userSpaceOnUse">
<stop stop-color="#6054FF"/>
<stop offset="1" stop-color="#8641FF"/>
</linearGradient>
</defs>
</svg>
