<svg width="100" height="30" viewBox="0 0 100 30" fill="none" xmlns="http://www.w3.org/2000/svg">
<path d="M48.5532 24.2396C46.0102 24.2396 43.9805 23.6867 42.4641 22.5811C40.9635 21.4596 40.1422 19.9116 40 17.9372H43.7198C43.8462 19.0429 44.328 19.88 45.1651 20.4487C46.0181 21.0173 47.1948 21.3016 48.6954 21.3016C50.0222 21.3016 51.0252 21.0805 51.7044 20.6382C52.3994 20.1802 52.7469 19.5167 52.7469 18.648C52.7469 17.9688 52.5179 17.4238 52.0598 17.0132C51.6176 16.6025 50.9147 16.2945 49.9511 16.0891L46.0655 15.3073C44.328 14.944 43.0169 14.3279 42.1324 13.4592C41.2636 12.5904 40.8293 11.469 40.8293 10.0948C40.8293 8.35727 41.4848 6.99097 42.7958 5.99585C44.1068 4.98494 45.8996 4.47949 48.1741 4.47949C50.4645 4.47949 52.3126 5.00864 53.7183 6.06693C55.1399 7.10943 55.9455 8.56261 56.1351 10.4265H52.4152C51.9414 8.37307 50.4566 7.34636 47.9609 7.34636C46.8394 7.34636 45.9549 7.5596 45.3073 7.98608C44.6755 8.39676 44.3595 8.98909 44.3595 9.76307C44.3595 10.9793 45.2283 11.7612 46.9658 12.1087L50.9936 12.9379C52.7943 13.3012 54.1211 13.9331 54.9741 14.8334C55.8428 15.7179 56.2772 16.8947 56.2772 18.3637C56.2772 20.2117 55.598 21.657 54.2396 22.6995C52.897 23.7262 51.0015 24.2396 48.5532 24.2396Z" fill="black"/>
<path d="M65.7848 24.2396C64.2526 24.2396 62.9179 23.9395 61.7806 23.3392C60.6591 22.7232 59.7825 21.8624 59.1507 20.7567C58.5347 19.651 58.2266 18.3479 58.2266 16.8473C58.2266 15.331 58.5347 14.0199 59.1507 12.9142C59.7825 11.8086 60.667 10.9556 61.8043 10.3554C62.9416 9.75519 64.2684 9.45508 65.7848 9.45508C67.3327 9.45508 68.6595 9.75519 69.7652 10.3554C70.8867 10.9556 71.7554 11.8086 72.3715 12.9142C72.9875 14.0199 73.2955 15.331 73.2955 16.8473C73.2955 18.3479 72.9875 19.6589 72.3715 20.7804C71.7554 21.8861 70.8867 22.739 69.7652 23.3392C68.6437 23.9395 67.3169 24.2396 65.7848 24.2396ZM65.7848 21.1595C67.0484 21.1595 68.0277 20.7804 68.7227 20.0222C69.4177 19.2482 69.7652 18.1899 69.7652 16.8473C69.7652 15.4889 69.4177 14.4306 68.7227 13.6724C68.0277 12.9142 67.0484 12.5352 65.7848 12.5352C64.5053 12.5352 63.5102 12.9142 62.7994 13.6724C62.1044 14.4306 61.7569 15.481 61.7569 16.8236C61.7569 18.182 62.1044 19.2482 62.7994 20.0222C63.5102 20.7804 64.5053 21.1595 65.7848 21.1595Z" fill="black"/>
<path d="M92.4879 24.2396C90.9557 24.2396 89.621 23.9395 88.4837 23.3392C87.3622 22.7232 86.4856 21.8624 85.8538 20.7567C85.2378 19.651 84.9297 18.3479 84.9297 16.8473C84.9297 15.331 85.2378 14.0199 85.8538 12.9142C86.4856 11.8086 87.3701 10.9556 88.5074 10.3554C89.6447 9.75519 90.9715 9.45508 92.4879 9.45508C94.0358 9.45508 95.3626 9.75519 96.4683 10.3554C97.5898 10.9556 98.4585 11.8086 99.0746 12.9142C99.6906 14.0199 99.9986 15.331 99.9986 16.8473C99.9986 18.3479 99.6906 19.6589 99.0746 20.7804C98.4585 21.8861 97.5898 22.739 96.4683 23.3392C95.3468 23.9395 94.02 24.2396 92.4879 24.2396ZM92.4879 21.1595C93.7515 21.1595 94.7308 20.7804 95.4258 20.0222C96.1208 19.2482 96.4683 18.1899 96.4683 16.8473C96.4683 15.4889 96.1208 14.4306 95.4258 13.6724C94.7308 12.9142 93.7515 12.5352 92.4879 12.5352C91.2084 12.5352 90.2133 12.9142 89.5025 13.6724C88.8075 14.4306 88.46 15.481 88.46 16.8236C88.46 18.182 88.8075 19.2482 89.5025 20.0222C90.2133 20.7804 91.2084 21.1595 92.4879 21.1595Z" fill="black"/>
<path d="M78.3901 9.73982H75.5469V23.9557H79.0298V16.7056C79.0298 15.4736 79.3457 14.4863 79.9775 13.744C80.6251 13.0016 81.5887 12.6304 82.8681 12.6304H84.2186V9.59766H83.0339C81.9757 9.59766 81.0358 9.84249 80.2145 10.3321C79.3931 10.8218 78.785 11.5405 78.3901 12.4882V9.73982Z" fill="black"/>
<path d="M10.6289 11.25C11.6644 11.25 12.5039 12.0895 12.5039 13.125V16.875C12.5039 17.9105 11.6644 18.75 10.6289 18.75C9.59337 18.75 8.75391 17.9105 8.75391 16.875V13.125C8.75391 12.0895 9.59337 11.25 10.6289 11.25Z" fill="url(#paint0_linear_2014_267)"/>
<path d="M19.3711 11.25C20.4066 11.25 21.2461 12.0895 21.2461 13.125V16.875C21.2461 17.9105 20.4066 18.75 19.3711 18.75C18.3356 18.75 17.4961 17.9105 17.4961 16.875V13.125C17.4961 12.0895 18.3356 11.25 19.3711 11.25Z" fill="url(#paint1_linear_2014_267)"/>
<path fill-rule="evenodd" clip-rule="evenodd" d="M19.9995 0C25.5224 0 30 4.47764 30 10.0005V19.9995C30 25.5224 25.5224 30 19.9995 30H10.0005L9.48486 29.9868C4.20142 29.7187 0 25.3496 0 19.9995V10.0005C0 4.65041 4.20142 0.281288 9.48486 0.0131836L10.0005 0H19.9995ZM10.0005 3.75C6.54871 3.75 3.75 6.54871 3.75 10.0005V19.9995C3.75 23.4513 6.54871 26.25 10.0005 26.25H19.9995C23.4513 26.25 26.25 23.4513 26.25 19.9995V10.0005C26.25 6.54871 23.4513 3.75 19.9995 3.75H10.0005Z" fill="url(#paint2_linear_2014_267)"/>
<defs>
<linearGradient id="paint0_linear_2014_267" x1="0" y1="15" x2="30" y2="15" gradientUnits="userSpaceOnUse">
<stop stop-color="#6054FF"/>
<stop offset="1" stop-color="#8641FF"/>
</linearGradient>
<linearGradient id="paint1_linear_2014_267" x1="0" y1="15" x2="30" y2="15" gradientUnits="userSpaceOnUse">
<stop stop-color="#6054FF"/>
<stop offset="1" stop-color="#8641FF"/>
</linearGradient>
<linearGradient id="paint2_linear_2014_267" x1="0" y1="15" x2="30" y2="15" gradientUnits="userSpaceOnUse">
<stop stop-color="#6054FF"/>
<stop offset="1" stop-color="#8641FF"/>
</linearGradient>
</defs>
</svg>
