<svg width="360" height="252" viewBox="0 0 360 252" fill="none" xmlns="http://www.w3.org/2000/svg">
<style>
  @keyframes drawChart {
    from {
      stroke-dashoffset: 600;
    }
    to {
      stroke-dashoffset: 0;
    }
  }
  .animated-chart {
    stroke-dasharray: 600;
    stroke-dashoffset: 600;
    animation: drawChart 4s ease-out infinite;
  }
</style>
<g filter="url(#filter0_d_90_836)">
<rect x="39.5996" y="53.1" width="281.7" height="146.7" rx="14.4" fill="white" shape-rendering="crispEdges"/>
<rect x="67.4995" y="74.7" width="25.2" height="10.8" rx="5.4" fill="#D7D7D7"/>
<rect x="130.5" y="74.7" width="30.6" height="10.8" rx="5.4" fill="#D7D7D7"/>
<rect x="196.2" y="74.7" width="24.3" height="10.8" rx="5.4" fill="#D7D7D7"/>
<rect x="67.4995" y="63.9" width="30.6" height="7.2" rx="3.6" fill="#F2F3F4"/>
<rect x="102.6" y="181.8" width="10.8" height="7.2" rx="3.6" fill="#F2F3F4"/>
<rect x="155.7" y="181.8" width="10.8" height="7.2" rx="3.6" fill="#F2F3F4"/>
<rect x="213.299" y="181.8" width="10.8" height="7.2" rx="3.6" fill="#F2F3F4"/>
<rect x="301.5" y="102.6" width="9" height="7.2" rx="3.6" fill="#F2F3F4"/>
<rect x="301.5" y="122.4" width="9" height="7.2" rx="3.6" fill="#F2F3F4"/>
<rect x="301.5" y="142.2" width="9" height="7.2" rx="3.6" fill="#F2F3F4"/>
<rect x="301.5" y="162" width="9" height="7.2" rx="3.6" fill="#F2F3F4"/>
<rect x="301.5" y="181.8" width="9" height="7.2" rx="3.6" fill="#F2F3F4"/>
<rect x="269.1" y="181.8" width="10.8" height="7.2" rx="3.6" fill="#F2F3F4"/>
<rect x="130.5" y="63.9" width="36" height="7.2" rx="3.6" fill="#F2F3F4"/>
<rect x="196.2" y="63.9" width="38.7" height="7.2" rx="3.6" fill="#F2F3F4"/>
<rect x="78.2993" y="89.9999" width="17.1" height="7.2" rx="3.6" fill="#00AA61"/>
<path d="M74.9995 93.975V92.1H73.1245" stroke="#00AA61" stroke-width="0.9" stroke-linecap="round" stroke-linejoin="round"/>
<path d="M74.999 92.1L73.124 93.975C72.793 94.306 72.6276 94.4714 72.4245 94.4897C72.3909 94.4927 72.3571 94.4927 72.3235 94.4897C72.1204 94.4714 71.955 94.306 71.624 93.975C71.293 93.644 71.1276 93.4786 70.9245 93.4603C70.8909 93.4572 70.8571 93.4572 70.8236 93.4603C70.6205 93.4786 70.455 93.644 70.124 93.975L68.999 95.1" stroke="#00AA61" stroke-width="0.9" stroke-linecap="round" stroke-linejoin="round"/>
<rect x="141.299" y="90" width="17.1" height="7.2" rx="3.6" fill="#00AA61"/>
<path d="M138 93.975V92.1H136.125" stroke="#00AA61" stroke-width="0.9" stroke-linecap="round" stroke-linejoin="round"/>
<path d="M137.999 92.1L136.124 93.975C135.793 94.306 135.628 94.4714 135.424 94.4897C135.391 94.4927 135.357 94.4927 135.324 94.4897C135.12 94.4714 134.955 94.306 134.624 93.975C134.293 93.644 134.128 93.4786 133.924 93.4603C133.891 93.4572 133.857 93.4572 133.824 93.4603C133.62 93.4786 133.455 93.644 133.124 93.975L131.999 95.1" stroke="#00AA61" stroke-width="0.9" stroke-linecap="round" stroke-linejoin="round"/>
<rect x="207" y="90" width="17.1" height="7.2" rx="3.6" fill="#00AA61"/>
<path d="M203.701 93.975V92.1H201.826" stroke="#00AA61" stroke-width="0.9" stroke-linecap="round" stroke-linejoin="round"/>
<path d="M203.7 92.1L201.825 93.975C201.494 94.306 201.328 94.4714 201.125 94.4897C201.092 94.4927 201.058 94.4927 201.024 94.4897C200.821 94.4714 200.656 94.306 200.325 93.975C199.994 93.644 199.828 93.4786 199.625 93.4603C199.592 93.4572 199.558 93.4572 199.524 93.4603C199.321 93.4786 199.156 93.644 198.825 93.975L197.7 95.1" stroke="#00AA61" stroke-width="0.9" stroke-linecap="round" stroke-linejoin="round"/>
<rect x="50.3994" y="99.9" width="256.5" height="0.9" fill="#F2F3F4"/>
<rect x="50.3994" y="119.7" width="256.5" height="0.9" fill="#F2F3F4"/>
<rect x="50.3994" y="139.5" width="256.5" height="0.9" fill="#F2F3F4"/>
<rect x="50.3994" y="159.3" width="256.5" height="0.9" fill="#F2F3F4"/>
<rect x="50.3994" y="179.1" width="256.5" height="0.9" fill="#F2F3F4"/>
<path class="animated-chart" d="M54.0005 163.35L63.9005 169.2L71.5505 158.85L79.6505 166.95L87.3005 158.85L104.4 152.1L112.5 147.15L121.05 149.85L129.6 144.45L137.25 160.65L149.85 144.45L162 135.9H171L185.85 139.5L193.05 145.8L201.6 149.85L208.35 139.5L218.7 132.3L226.8 139.5L236.25 123.3L244.35 142.65L252.45 147.15L260.1 130.5L275.4 123.3L285.75 110.7L295.2 104.85" stroke="url(#paint0_linear_90_836)" stroke-width="3.6" stroke-linecap="round"/>
<path d="M53.1006 178.65H87.3006L93.6006 172.8L109.801 168.3L119.701 172.8L128.251 166.05L135.451 172.8L160.651 178.65L170.551 172.8L189.001 175.5L194.851 174.15L209.251 177.3L223.201 174.15L234.451 166.05L251.551 172.8L259.651 166.05L269.551 156.6L282.601 162.45L294.301 168.3" stroke="#F2F3F4" stroke-width="1.8" stroke-linecap="round" stroke-dasharray="7.2 7.2"/>
</g>
<defs>
<filter id="filter0_d_90_836" x="27.5036" y="41.004" width="305.892" height="170.892" filterUnits="userSpaceOnUse" color-interpolation-filters="sRGB">
<feFlood flood-opacity="0" result="BackgroundImageFix"/>
<feColorMatrix in="SourceAlpha" type="matrix" values="0 0 0 0 0 0 0 0 0 0 0 0 0 0 0 0 0 0 127 0" result="hardAlpha"/>
<feOffset/>
<feGaussianBlur stdDeviation="6.048"/>
<feComposite in2="hardAlpha" operator="out"/>
<feColorMatrix type="matrix" values="0 0 0 0 0 0 0 0 0 0 0 0 0 0 0 0 0 0 0.12 0"/>
<feBlend mode="normal" in2="BackgroundImageFix" result="effect1_dropShadow_90_836"/>
<feBlend mode="normal" in="SourceGraphic" in2="effect1_dropShadow_90_836" result="shape"/>
</filter>
<linearGradient id="paint0_linear_90_836" x1="54.0005" y1="139.95" x2="295.65" y2="139.95" gradientUnits="userSpaceOnUse">
<stop stop-color="#00AA61" stop-opacity="0"/>
<stop offset="1" stop-color="#00AA61"/>
</linearGradient>
</defs>
</svg>
