<svg width="60" height="60" viewBox="0 0 60 60" fill="none" xmlns="http://www.w3.org/2000/svg" xmlns:xlink="http://www.w3.org/1999/xlink">
<rect width="60" height="60" rx="7.2" fill="url(#pattern0_1852_1502)"/>
<rect width="60" height="60" rx="7.2" fill="#F6F6F6"/>
<path d="M17.6713 35.2609V27.7471H16V27.5399L17.6713 25.5924H19.605V35.2609H17.6713Z" fill="black"/>
<path d="M24.5769 35.4404C23.8403 35.4404 23.1865 35.2701 22.6156 34.9294C22.0539 34.5887 21.6119 34.1375 21.2896 33.5758C20.9765 33.0049 20.82 32.3741 20.82 31.6835V29.1973C20.82 28.5067 20.9765 27.8806 21.2896 27.3189C21.6119 26.748 22.0539 26.2922 22.6156 25.9515C23.1865 25.6108 23.8403 25.4404 24.5769 25.4404C25.3228 25.4404 25.9765 25.6108 26.5382 25.9515C27.0999 26.2922 27.5373 26.748 27.8504 27.3189C28.1727 27.8806 28.3338 28.5067 28.3338 29.1973V31.6835C28.3338 32.3741 28.1727 33.0049 27.8504 33.5758C27.5373 34.1375 27.0999 34.5887 26.5382 34.9294C25.9765 35.2701 25.3228 35.4404 24.5769 35.4404ZM24.5769 33.6448C25.1754 33.6448 25.6174 33.4377 25.9029 33.0233C26.1883 32.6089 26.3311 32.0887 26.3311 31.4625V29.4321C26.3311 28.7323 26.1883 28.1937 25.9029 27.8161C25.6174 27.4294 25.1754 27.236 24.5769 27.236C23.9876 27.236 23.5456 27.4294 23.2509 27.8161C22.9655 28.1937 22.8228 28.7323 22.8228 29.4321V31.4625C22.8228 32.0887 22.9655 32.6089 23.2509 33.0233C23.5456 33.4377 23.9876 33.6448 24.5769 33.6448Z" fill="black"/>
<path d="M33.0611 35.4404C32.3245 35.4404 31.6707 35.2701 31.0998 34.9294C30.5381 34.5887 30.0961 34.1375 29.7738 33.5758C29.4608 33.0049 29.3042 32.3741 29.3042 31.6835V29.1973C29.3042 28.5067 29.4608 27.8806 29.7738 27.3189C30.0961 26.748 30.5381 26.2922 31.0998 25.9515C31.6707 25.6108 32.3245 25.4404 33.0611 25.4404C33.807 25.4404 34.4608 25.6108 35.0225 25.9515C35.5842 26.2922 36.0215 26.748 36.3346 27.3189C36.6569 27.8806 36.818 28.5067 36.818 29.1973V31.6835C36.818 32.3741 36.6569 33.0049 36.3346 33.5758C36.0215 34.1375 35.5842 34.5887 35.0225 34.9294C34.4608 35.2701 33.807 35.4404 33.0611 35.4404ZM33.0611 33.6448C33.6597 33.6448 34.1017 33.4377 34.3871 33.0233C34.6726 32.6089 34.8153 32.0887 34.8153 31.4625V29.4321C34.8153 28.7323 34.6726 28.1937 34.3871 27.8161C34.1017 27.4294 33.6597 27.236 33.0611 27.236C32.4718 27.236 32.0298 27.4294 31.7352 27.8161C31.4497 28.1937 31.307 28.7323 31.307 29.4321V31.4625C31.307 32.0887 31.4497 32.6089 31.7352 33.0233C32.0298 33.4377 32.4718 33.6448 33.0611 33.6448Z" fill="black"/>
<path d="M40.247 34.1006V31.6559H37.9266V30.1366H40.247V27.7194H41.8492V30.1366H44.1697V31.6559H41.8492V34.1006H40.247Z" fill="black"/>
<defs>
<pattern id="pattern0_1852_1502" patternContentUnits="objectBoundingBox" width="1" height="1">
<use xlink:href="#image0_1852_1502" transform="scale(0.00304878)"/>
</pattern>
</defs>
</svg>
